<?xml version="1.0" encoding="UTF-8" standalone="no"?>
<!DOCTYPE svg PUBLIC "-//W3C//DTD SVG 1.1//EN"
 "http://www.w3.org/Graphics/SVG/1.1/DTD/svg11.dtd">
<!-- Generated by graphviz version 12.1.2 (0)
 -->
<!-- Pages: 1 -->
<svg width="730pt" height="842pt"
 viewBox="0.00 0.00 730.40 842.00" xmlns="http://www.w3.org/2000/svg" xmlns:xlink="http://www.w3.org/1999/xlink">
<g id="graph0" class="graph" transform="scale(1 1) rotate(0) translate(144 698)">
<polygon fill="white" stroke="none" points="-144,144 -144,-698 586.4,-698 586.4,144 -144,144"/>
<g id="clust1" class="cluster">
<title>cluster_Input</title>
<path fill="#e5f5fd" stroke="#aeb6be" d="M20,-8C20,-8 112.8,-8 112.8,-8 118.8,-8 124.8,-14 124.8,-20 124.8,-20 124.8,-534 124.8,-534 124.8,-540 118.8,-546 112.8,-546 112.8,-546 20,-546 20,-546 14,-546 8,-540 8,-534 8,-534 8,-20 8,-20 8,-14 14,-8 20,-8"/>
<text text-anchor="middle" x="31.38" y="-530.6" font-family="Sans-Serif" font-size="12.00" fill="#2d3436">Input</text>
</g>
<g id="clust2" class="cluster">
<title>cluster_MTH5 Storage</title>
<path fill="#e5f5fd" stroke="#aeb6be" d="M174.8,-188C174.8,-188 422.4,-188 422.4,-188 428.4,-188 434.4,-194 434.4,-200 434.4,-200 434.4,-354 434.4,-354 434.4,-360 428.4,-366 422.4,-366 422.4,-366 174.8,-366 174.8,-366 168.8,-366 162.8,-360 162.8,-354 162.8,-354 162.8,-200 162.8,-200 162.8,-194 168.8,-188 174.8,-188"/>
<text text-anchor="middle" x="211.3" y="-350.6" font-family="Sans-Serif" font-size="12.00" fill="#2d3436">MTH5 Storage</text>
</g>
<!-- f2afa1a1ebbb42e786436e5a53af877e -->
<g id="node1" class="node">
<title>f2afa1a1ebbb42e786436e5a53af877e</title>
<image xlink:href="/usr/lib/python3.12/site-packages/diagrams/resources/aws/compute/elastic-container-service.png" width="100.8px" height="100.8px" preserveAspectRatio="xMinYMin meet" x="16" y="-134.4"/>
<text text-anchor="middle" x="66.4" y="-22" font-family="Sans-Serif" font-size="13.00" fill="#2d3436">system type C</text>
</g>
<!-- efa7a20393c14ea5a836cc1185e2c048 -->
<g id="node4" class="node">
<title>efa7a20393c14ea5a836cc1185e2c048</title>
<image xlink:href="/usr/lib/python3.12/site-packages/diagrams/resources/aws/database/rds.png" width="100.8px" height="100.8px" preserveAspectRatio="xMinYMin meet" x="170.8" y="-314.4"/>
<text text-anchor="middle" x="221.2" y="-202" font-family="Sans-Serif" font-size="13.00" fill="#2d3436">MTH5</text>
</g>
<!-- f2afa1a1ebbb42e786436e5a53af877e&#45;&gt;efa7a20393c14ea5a836cc1185e2c048 -->
<g id="edge2" class="edge">
<title>f2afa1a1ebbb42e786436e5a53af877e&#45;&gt;efa7a20393c14ea5a836cc1185e2c048</title>
<path fill="none" stroke="#7b8894" d="M116.66,-84C161.86,-84 221.2,-84 221.2,-84 221.2,-84 221.2,-184.18 221.2,-184.18"/>
<polygon fill="#7b8894" stroke="#7b8894" points="217.7,-184.18 221.2,-194.18 224.7,-184.18 217.7,-184.18"/>
</g>
<!-- 26cda7d169844fdaa07122a6aa80325b -->
<g id="node2" class="node">
<title>26cda7d169844fdaa07122a6aa80325b</title>
<image xlink:href="/usr/lib/python3.12/site-packages/diagrams/resources/aws/compute/elastic-container-service.png" width="100.8px" height="100.8px" preserveAspectRatio="xMinYMin meet" x="16" y="-314.4"/>
<text text-anchor="middle" x="66.4" y="-202" font-family="Sans-Serif" font-size="13.00" fill="#2d3436">system type B</text>
</g>
<!-- 26cda7d169844fdaa07122a6aa80325b&#45;&gt;efa7a20393c14ea5a836cc1185e2c048 -->
<g id="edge3" class="edge">
<title>26cda7d169844fdaa07122a6aa80325b&#45;&gt;efa7a20393c14ea5a836cc1185e2c048</title>
<path fill="none" stroke="#7b8894" d="M116.66,-264C116.66,-264 159.41,-264 159.41,-264"/>
<polygon fill="#7b8894" stroke="#7b8894" points="159.41,-267.5 169.41,-264 159.41,-260.5 159.41,-267.5"/>
</g>
<!-- 78543554e2e147ca9b9967be7c82a127 -->
<g id="node3" class="node">
<title>78543554e2e147ca9b9967be7c82a127</title>
<image xlink:href="/usr/lib/python3.12/site-packages/diagrams/resources/aws/compute/elastic-container-service.png" width="100.8px" height="100.8px" preserveAspectRatio="xMinYMin meet" x="16" y="-494.4"/>
<text text-anchor="middle" x="66.4" y="-382" font-family="Sans-Serif" font-size="13.00" fill="#2d3436">system type A</text>
</g>
<!-- 78543554e2e147ca9b9967be7c82a127&#45;&gt;efa7a20393c14ea5a836cc1185e2c048 -->
<g id="edge4" class="edge">
<title>78543554e2e147ca9b9967be7c82a127&#45;&gt;efa7a20393c14ea5a836cc1185e2c048</title>
<path fill="none" stroke="#7b8894" d="M116.66,-444C161.86,-444 221.2,-444 221.2,-444 221.2,-444 221.2,-343.82 221.2,-343.82"/>
<polygon fill="#7b8894" stroke="#7b8894" points="224.7,-343.82 221.2,-333.82 217.7,-343.82 224.7,-343.82"/>
</g>
<!-- 0fbbda9d9ac54aeab74259e345a54870 -->
<g id="node5" class="node">
<title>0fbbda9d9ac54aeab74259e345a54870</title>
<image xlink:href="/usr/lib/python3.12/site-packages/diagrams/resources/aws/database/redshift-dense-storage-node.png" width="100.8px" height="100.8px" preserveAspectRatio="xMinYMin meet" x="325.6" y="-314.4"/>
<text text-anchor="middle" x="376" y="-202" font-family="Sans-Serif" font-size="13.00" fill="#2d3436">DUMP FS</text>
</g>
<!-- efa7a20393c14ea5a836cc1185e2c048&#45;&gt;0fbbda9d9ac54aeab74259e345a54870 -->
<g id="edge1" class="edge">
<title>efa7a20393c14ea5a836cc1185e2c048&#45;&gt;0fbbda9d9ac54aeab74259e345a54870</title>
<path fill="none" stroke="red" d="M271.46,-264C288.85,-264 308.34,-264 325.73,-264"/>
</g>
</g>
</svg>
